<svg xmlns="http://www.w3.org/2000/svg" xmlns:rdkit="http://www.rdkit.org/xml" xmlns:xlink="http://www.w3.org/1999/xlink" version="1.1" baseProfile="full" xml:space="preserve" width="600px" height="200px" viewBox="0 0 600 200">
<!-- END OF HEADER -->
<rect style="opacity:0.0;fill:#FFFFFF;stroke:none" width="600.0" height="200.0" x="0.0" y="0.0"> </rect>
<rect style="opacity:0.0;fill:#FFFFFF;stroke:none" width="600.0" height="200.0" x="0.0" y="0.0"> </rect>
<rect style="opacity:0.0;fill:#FFFFFF;stroke:none" width="600.0" height="200.0" x="0.0" y="0.0"> </rect>
<rect style="opacity:0.0;fill:#FFFFFF;stroke:none" width="600.0" height="200.0" x="0.0" y="0.0"> </rect>
<path class="bond-0 atom-0 atom-1" d="M 8.7,98.9 L 21.6,102.3" style="fill:none;fill-rule:evenodd;stroke:#000000;stroke-width:2.0px;stroke-linecap:butt;stroke-linejoin:miter;stroke-opacity:1"/>
<path class="bond-0 atom-0 atom-1" d="M 9.4,96.3 L 22.2,99.7" style="fill:none;fill-rule:evenodd;stroke:#000000;stroke-width:2.0px;stroke-linecap:butt;stroke-linejoin:miter;stroke-opacity:1"/>
<path class="bond-1 atom-1 atom-2" d="M 21.9,101.0 L 31.3,91.6" style="fill:none;fill-rule:evenodd;stroke:#000000;stroke-width:2.0px;stroke-linecap:butt;stroke-linejoin:miter;stroke-opacity:1"/>
<path class="bond-2 atom-2 atom-3" d="M 32.6,91.3 L 31.2,86.1" style="fill:none;fill-rule:evenodd;stroke:#000000;stroke-width:2.0px;stroke-linecap:butt;stroke-linejoin:miter;stroke-opacity:1"/>
<path class="bond-2 atom-2 atom-3" d="M 31.2,86.1 L 29.8,81.0" style="fill:none;fill-rule:evenodd;stroke:#FF0000;stroke-width:2.0px;stroke-linecap:butt;stroke-linejoin:miter;stroke-opacity:1"/>
<path class="bond-2 atom-2 atom-3" d="M 30.0,92.0 L 28.6,86.8" style="fill:none;fill-rule:evenodd;stroke:#000000;stroke-width:2.0px;stroke-linecap:butt;stroke-linejoin:miter;stroke-opacity:1"/>
<path class="bond-2 atom-2 atom-3" d="M 28.6,86.8 L 27.2,81.7" style="fill:none;fill-rule:evenodd;stroke:#FF0000;stroke-width:2.0px;stroke-linecap:butt;stroke-linejoin:miter;stroke-opacity:1"/>
<path class="bond-3 atom-2 atom-4" d="M 31.3,91.6 L 36.7,93.1" style="fill:none;fill-rule:evenodd;stroke:#000000;stroke-width:2.0px;stroke-linecap:butt;stroke-linejoin:miter;stroke-opacity:1"/>
<path class="bond-3 atom-2 atom-4" d="M 36.7,93.1 L 42.1,94.5" style="fill:none;fill-rule:evenodd;stroke:#0000FF;stroke-width:2.0px;stroke-linecap:butt;stroke-linejoin:miter;stroke-opacity:1"/>
<path class="bond-4 atom-4 atom-5" d="M 46.0,93.1 L 49.7,89.4" style="fill:none;fill-rule:evenodd;stroke:#0000FF;stroke-width:2.0px;stroke-linecap:butt;stroke-linejoin:miter;stroke-opacity:1"/>
<path class="bond-4 atom-4 atom-5" d="M 49.7,89.4 L 53.5,85.6" style="fill:none;fill-rule:evenodd;stroke:#000000;stroke-width:2.0px;stroke-linecap:butt;stroke-linejoin:miter;stroke-opacity:1"/>
<path class="bond-5 atom-5 atom-6" d="M 53.5,85.6 L 66.3,89.0" style="fill:none;fill-rule:evenodd;stroke:#000000;stroke-width:2.0px;stroke-linecap:butt;stroke-linejoin:miter;stroke-opacity:1"/>
<path class="bond-6 atom-6 atom-7" d="M 66.3,89.0 L 69.8,85.5" style="fill:none;fill-rule:evenodd;stroke:#000000;stroke-width:2.0px;stroke-linecap:butt;stroke-linejoin:miter;stroke-opacity:1"/>
<path class="bond-6 atom-6 atom-7" d="M 69.8,85.5 L 73.4,81.9" style="fill:none;fill-rule:evenodd;stroke:#FF0000;stroke-width:2.0px;stroke-linecap:butt;stroke-linejoin:miter;stroke-opacity:1"/>
<path class="bond-7 atom-7 atom-8" d="M 77.9,80.3 L 83.2,81.7" style="fill:none;fill-rule:evenodd;stroke:#FF0000;stroke-width:2.0px;stroke-linecap:butt;stroke-linejoin:miter;stroke-opacity:1"/>
<path class="bond-7 atom-7 atom-8" d="M 83.2,81.7 L 88.5,83.1" style="fill:none;fill-rule:evenodd;stroke:#000000;stroke-width:2.0px;stroke-linecap:butt;stroke-linejoin:miter;stroke-opacity:1"/>
<path class="bond-8 atom-8 atom-9" d="M 88.5,83.1 L 91.9,95.9" style="fill:none;fill-rule:evenodd;stroke:#000000;stroke-width:2.0px;stroke-linecap:butt;stroke-linejoin:miter;stroke-opacity:1"/>
<path class="bond-8 atom-8 atom-9" d="M 91.5,84.3 L 93.9,93.3" style="fill:none;fill-rule:evenodd;stroke:#000000;stroke-width:2.0px;stroke-linecap:butt;stroke-linejoin:miter;stroke-opacity:1"/>
<path class="bond-31 atom-26 atom-8" d="M 97.8,73.7 L 88.5,83.1" style="fill:none;fill-rule:evenodd;stroke:#000000;stroke-width:2.0px;stroke-linecap:butt;stroke-linejoin:miter;stroke-opacity:1"/>
<path class="bond-9 atom-9 atom-10" d="M 91.9,95.9 L 104.7,99.3" style="fill:none;fill-rule:evenodd;stroke:#000000;stroke-width:2.0px;stroke-linecap:butt;stroke-linejoin:miter;stroke-opacity:1"/>
<path class="bond-10 atom-10 atom-11" d="M 104.7,99.3 L 106.1,104.5" style="fill:none;fill-rule:evenodd;stroke:#000000;stroke-width:2.0px;stroke-linecap:butt;stroke-linejoin:miter;stroke-opacity:1"/>
<path class="bond-10 atom-10 atom-11" d="M 106.1,104.5 L 107.5,109.7" style="fill:none;fill-rule:evenodd;stroke:#0000FF;stroke-width:2.0px;stroke-linecap:butt;stroke-linejoin:miter;stroke-opacity:1"/>
<path class="bond-10 atom-10 atom-11" d="M 107.7,100.2 L 108.7,103.8" style="fill:none;fill-rule:evenodd;stroke:#000000;stroke-width:2.0px;stroke-linecap:butt;stroke-linejoin:miter;stroke-opacity:1"/>
<path class="bond-10 atom-10 atom-11" d="M 108.7,103.8 L 109.6,107.4" style="fill:none;fill-rule:evenodd;stroke:#0000FF;stroke-width:2.0px;stroke-linecap:butt;stroke-linejoin:miter;stroke-opacity:1"/>
<path class="bond-32 atom-24 atom-10" d="M 114.1,89.9 L 104.7,99.3" style="fill:none;fill-rule:evenodd;stroke:#000000;stroke-width:2.0px;stroke-linecap:butt;stroke-linejoin:miter;stroke-opacity:1"/>
<path class="bond-11 atom-11 atom-12" d="M 110.1,112.6 L 115.5,114.1" style="fill:none;fill-rule:evenodd;stroke:#0000FF;stroke-width:2.0px;stroke-linecap:butt;stroke-linejoin:miter;stroke-opacity:1"/>
<path class="bond-11 atom-11 atom-12" d="M 115.5,114.1 L 121.0,115.5" style="fill:none;fill-rule:evenodd;stroke:#000000;stroke-width:2.0px;stroke-linecap:butt;stroke-linejoin:miter;stroke-opacity:1"/>
<path class="bond-12 atom-12 atom-13" d="M 121.0,115.5 L 124.7,111.8" style="fill:none;fill-rule:evenodd;stroke:#000000;stroke-width:2.0px;stroke-linecap:butt;stroke-linejoin:miter;stroke-opacity:1"/>
<path class="bond-12 atom-12 atom-13" d="M 124.7,111.8 L 128.4,108.1" style="fill:none;fill-rule:evenodd;stroke:#0000FF;stroke-width:2.0px;stroke-linecap:butt;stroke-linejoin:miter;stroke-opacity:1"/>
<path class="bond-12 atom-12 atom-13" d="M 120.2,112.5 L 122.8,109.9" style="fill:none;fill-rule:evenodd;stroke:#000000;stroke-width:2.0px;stroke-linecap:butt;stroke-linejoin:miter;stroke-opacity:1"/>
<path class="bond-12 atom-12 atom-13" d="M 122.8,109.9 L 125.4,107.3" style="fill:none;fill-rule:evenodd;stroke:#0000FF;stroke-width:2.0px;stroke-linecap:butt;stroke-linejoin:miter;stroke-opacity:1"/>
<path class="bond-13 atom-13 atom-14" d="M 129.7,103.7 L 128.3,98.5" style="fill:none;fill-rule:evenodd;stroke:#0000FF;stroke-width:2.0px;stroke-linecap:butt;stroke-linejoin:miter;stroke-opacity:1"/>
<path class="bond-13 atom-13 atom-14" d="M 128.3,98.5 L 126.9,93.3" style="fill:none;fill-rule:evenodd;stroke:#000000;stroke-width:2.0px;stroke-linecap:butt;stroke-linejoin:miter;stroke-opacity:1"/>
<path class="bond-14 atom-14 atom-15" d="M 126.9,93.3 L 130.6,89.6" style="fill:none;fill-rule:evenodd;stroke:#000000;stroke-width:2.0px;stroke-linecap:butt;stroke-linejoin:miter;stroke-opacity:1"/>
<path class="bond-14 atom-14 atom-15" d="M 130.6,89.6 L 134.3,85.9" style="fill:none;fill-rule:evenodd;stroke:#0000FF;stroke-width:2.0px;stroke-linecap:butt;stroke-linejoin:miter;stroke-opacity:1"/>
<path class="bond-23 atom-14 atom-24" d="M 126.9,93.3 L 114.1,89.9" style="fill:none;fill-rule:evenodd;stroke:#000000;stroke-width:2.0px;stroke-linecap:butt;stroke-linejoin:miter;stroke-opacity:1"/>
<path class="bond-23 atom-14 atom-24" d="M 124.3,95.4 L 115.3,93.0" style="fill:none;fill-rule:evenodd;stroke:#000000;stroke-width:2.0px;stroke-linecap:butt;stroke-linejoin:miter;stroke-opacity:1"/>
<path class="bond-15 atom-15 atom-16" d="M 138.2,84.5 L 143.6,85.9" style="fill:none;fill-rule:evenodd;stroke:#0000FF;stroke-width:2.0px;stroke-linecap:butt;stroke-linejoin:miter;stroke-opacity:1"/>
<path class="bond-15 atom-15 atom-16" d="M 143.6,85.9 L 149.1,87.4" style="fill:none;fill-rule:evenodd;stroke:#000000;stroke-width:2.0px;stroke-linecap:butt;stroke-linejoin:miter;stroke-opacity:1"/>
<path class="bond-16 atom-16 atom-17" d="M 149.1,87.4 L 152.5,100.2" style="fill:none;fill-rule:evenodd;stroke:#000000;stroke-width:2.0px;stroke-linecap:butt;stroke-linejoin:miter;stroke-opacity:1"/>
<path class="bond-16 atom-16 atom-17" d="M 152.2,88.6 L 154.6,97.5" style="fill:none;fill-rule:evenodd;stroke:#000000;stroke-width:2.0px;stroke-linecap:butt;stroke-linejoin:miter;stroke-opacity:1"/>
<path class="bond-33 atom-22 atom-16" d="M 158.4,78.0 L 149.1,87.4" style="fill:none;fill-rule:evenodd;stroke:#000000;stroke-width:2.0px;stroke-linecap:butt;stroke-linejoin:miter;stroke-opacity:1"/>
<path class="bond-17 atom-17 atom-18" d="M 152.5,100.2 L 165.3,103.6" style="fill:none;fill-rule:evenodd;stroke:#000000;stroke-width:2.0px;stroke-linecap:butt;stroke-linejoin:miter;stroke-opacity:1"/>
<path class="bond-18 atom-18 atom-19" d="M 165.3,103.6 L 174.7,94.2" style="fill:none;fill-rule:evenodd;stroke:#000000;stroke-width:2.0px;stroke-linecap:butt;stroke-linejoin:miter;stroke-opacity:1"/>
<path class="bond-18 atom-18 atom-19" d="M 164.9,100.3 L 171.4,93.7" style="fill:none;fill-rule:evenodd;stroke:#000000;stroke-width:2.0px;stroke-linecap:butt;stroke-linejoin:miter;stroke-opacity:1"/>
<path class="bond-19 atom-19 atom-20" d="M 174.7,94.2 L 180.2,95.7" style="fill:none;fill-rule:evenodd;stroke:#000000;stroke-width:2.0px;stroke-linecap:butt;stroke-linejoin:miter;stroke-opacity:1"/>
<path class="bond-19 atom-19 atom-20" d="M 180.2,95.7 L 185.8,97.1" style="fill:none;fill-rule:evenodd;stroke:#7F4C19;stroke-width:2.0px;stroke-linecap:butt;stroke-linejoin:miter;stroke-opacity:1"/>
<path class="bond-20 atom-19 atom-21" d="M 174.7,94.2 L 171.3,81.4" style="fill:none;fill-rule:evenodd;stroke:#000000;stroke-width:2.0px;stroke-linecap:butt;stroke-linejoin:miter;stroke-opacity:1"/>
<path class="bond-21 atom-21 atom-22" d="M 171.3,81.4 L 158.4,78.0" style="fill:none;fill-rule:evenodd;stroke:#000000;stroke-width:2.0px;stroke-linecap:butt;stroke-linejoin:miter;stroke-opacity:1"/>
<path class="bond-21 atom-21 atom-22" d="M 168.7,83.4 L 159.7,81.0" style="fill:none;fill-rule:evenodd;stroke:#000000;stroke-width:2.0px;stroke-linecap:butt;stroke-linejoin:miter;stroke-opacity:1"/>
<path class="bond-22 atom-22 atom-23" d="M 158.4,78.0 L 157.1,72.8" style="fill:none;fill-rule:evenodd;stroke:#000000;stroke-width:2.0px;stroke-linecap:butt;stroke-linejoin:miter;stroke-opacity:1"/>
<path class="bond-22 atom-22 atom-23" d="M 157.1,72.8 L 155.7,67.6" style="fill:none;fill-rule:evenodd;stroke:#33CCCC;stroke-width:2.0px;stroke-linecap:butt;stroke-linejoin:miter;stroke-opacity:1"/>
<path class="bond-24 atom-24 atom-25" d="M 114.1,89.9 L 110.6,77.1" style="fill:none;fill-rule:evenodd;stroke:#000000;stroke-width:2.0px;stroke-linecap:butt;stroke-linejoin:miter;stroke-opacity:1"/>
<path class="bond-25 atom-25 atom-26" d="M 110.6,77.1 L 97.8,73.7" style="fill:none;fill-rule:evenodd;stroke:#000000;stroke-width:2.0px;stroke-linecap:butt;stroke-linejoin:miter;stroke-opacity:1"/>
<path class="bond-25 atom-25 atom-26" d="M 108.0,79.2 L 99.1,76.8" style="fill:none;fill-rule:evenodd;stroke:#000000;stroke-width:2.0px;stroke-linecap:butt;stroke-linejoin:miter;stroke-opacity:1"/>
<path class="bond-26 atom-26 atom-27" d="M 97.8,73.7 L 96.4,68.5" style="fill:none;fill-rule:evenodd;stroke:#000000;stroke-width:2.0px;stroke-linecap:butt;stroke-linejoin:miter;stroke-opacity:1"/>
<path class="bond-26 atom-26 atom-27" d="M 96.4,68.5 L 95.0,63.3" style="fill:none;fill-rule:evenodd;stroke:#0000FF;stroke-width:2.0px;stroke-linecap:butt;stroke-linejoin:miter;stroke-opacity:1"/>
<path class="bond-27 atom-27 atom-28" d="M 96.3,58.9 L 100.0,55.2" style="fill:none;fill-rule:evenodd;stroke:#0000FF;stroke-width:2.0px;stroke-linecap:butt;stroke-linejoin:miter;stroke-opacity:1"/>
<path class="bond-27 atom-27 atom-28" d="M 100.0,55.2 L 103.7,51.5" style="fill:none;fill-rule:evenodd;stroke:#000000;stroke-width:2.0px;stroke-linecap:butt;stroke-linejoin:miter;stroke-opacity:1"/>
<path class="bond-28 atom-28 atom-29" d="M 103.4,52.8 L 108.7,54.2" style="fill:none;fill-rule:evenodd;stroke:#000000;stroke-width:2.0px;stroke-linecap:butt;stroke-linejoin:miter;stroke-opacity:1"/>
<path class="bond-28 atom-28 atom-29" d="M 108.7,54.2 L 113.9,55.6" style="fill:none;fill-rule:evenodd;stroke:#FF0000;stroke-width:2.0px;stroke-linecap:butt;stroke-linejoin:miter;stroke-opacity:1"/>
<path class="bond-28 atom-28 atom-29" d="M 104.1,50.2 L 109.3,51.6" style="fill:none;fill-rule:evenodd;stroke:#000000;stroke-width:2.0px;stroke-linecap:butt;stroke-linejoin:miter;stroke-opacity:1"/>
<path class="bond-28 atom-28 atom-29" d="M 109.3,51.6 L 114.6,53.0" style="fill:none;fill-rule:evenodd;stroke:#FF0000;stroke-width:2.0px;stroke-linecap:butt;stroke-linejoin:miter;stroke-opacity:1"/>
<path class="bond-29 atom-28 atom-30" d="M 103.7,51.5 L 100.3,38.7" style="fill:none;fill-rule:evenodd;stroke:#000000;stroke-width:2.0px;stroke-linecap:butt;stroke-linejoin:miter;stroke-opacity:1"/>
<path class="bond-30 atom-30 atom-31" d="M 101.2,39.6 L 110.6,30.2" style="fill:none;fill-rule:evenodd;stroke:#000000;stroke-width:2.0px;stroke-linecap:butt;stroke-linejoin:miter;stroke-opacity:1"/>
<path class="bond-30 atom-30 atom-31" d="M 99.3,37.7 L 108.7,28.4" style="fill:none;fill-rule:evenodd;stroke:#000000;stroke-width:2.0px;stroke-linecap:butt;stroke-linejoin:miter;stroke-opacity:1"/>
<path class="atom-3" d="M 25.9 78.8 Q 25.9 77.8, 26.4 77.2 Q 26.9 76.7, 27.8 76.7 Q 28.8 76.7, 29.3 77.2 Q 29.8 77.8, 29.8 78.8 Q 29.8 79.8, 29.3 80.4 Q 28.8 81.0, 27.8 81.0 Q 26.9 81.0, 26.4 80.4 Q 25.9 79.8, 25.9 78.8 M 27.8 80.5 Q 28.5 80.5, 28.8 80.1 Q 29.2 79.7, 29.2 78.8 Q 29.2 78.0, 28.8 77.6 Q 28.5 77.1, 27.8 77.1 Q 27.2 77.1, 26.8 77.6 Q 26.5 78.0, 26.5 78.8 Q 26.5 79.7, 26.8 80.1 Q 27.2 80.5, 27.8 80.5 " fill="#FF0000"/>
<path class="atom-4" d="M 43.1 92.9 L 44.5 95.1 Q 44.7 95.4, 44.9 95.8 Q 45.1 96.2, 45.1 96.2 L 45.1 92.9 L 45.7 92.9 L 45.7 97.1 L 45.1 97.1 L 43.6 94.7 Q 43.4 94.4, 43.3 94.1 Q 43.1 93.7, 43.0 93.6 L 43.0 97.1 L 42.5 97.1 L 42.5 92.9 L 43.1 92.9 " fill="#0000FF"/>
<path class="atom-4" d="M 42.4 97.6 L 43.0 97.6 L 43.0 99.4 L 45.2 99.4 L 45.2 97.6 L 45.8 97.6 L 45.8 101.8 L 45.2 101.8 L 45.2 99.9 L 43.0 99.9 L 43.0 101.8 L 42.4 101.8 L 42.4 97.6 " fill="#0000FF"/>
<path class="atom-7" d="M 73.7 79.7 Q 73.7 78.7, 74.2 78.1 Q 74.7 77.5, 75.6 77.5 Q 76.6 77.5, 77.1 78.1 Q 77.6 78.7, 77.6 79.7 Q 77.6 80.7, 77.1 81.3 Q 76.6 81.9, 75.6 81.9 Q 74.7 81.9, 74.2 81.3 Q 73.7 80.7, 73.7 79.7 M 75.6 81.4 Q 76.3 81.4, 76.6 81.0 Q 77.0 80.5, 77.0 79.7 Q 77.0 78.8, 76.6 78.4 Q 76.3 78.0, 75.6 78.0 Q 75.0 78.0, 74.6 78.4 Q 74.3 78.8, 74.3 79.7 Q 74.3 80.5, 74.6 81.0 Q 75.0 81.4, 75.6 81.4 " fill="#FF0000"/>
<path class="atom-11" d="M 107.2 110.0 L 108.6 112.2 Q 108.8 112.5, 109.0 112.9 Q 109.2 113.3, 109.2 113.3 L 109.2 110.0 L 109.8 110.0 L 109.8 114.2 L 109.2 114.2 L 107.7 111.8 Q 107.5 111.5, 107.3 111.2 Q 107.2 110.8, 107.1 110.7 L 107.1 114.2 L 106.6 114.2 L 106.6 110.0 L 107.2 110.0 " fill="#0000FF"/>
<path class="atom-13" d="M 129.4 104.0 L 130.8 106.3 Q 130.9 106.5, 131.2 106.9 Q 131.4 107.3, 131.4 107.3 L 131.4 104.0 L 132.0 104.0 L 132.0 108.3 L 131.4 108.3 L 129.9 105.8 Q 129.7 105.5, 129.5 105.2 Q 129.3 104.8, 129.3 104.7 L 129.3 108.3 L 128.7 108.3 L 128.7 104.0 L 129.4 104.0 " fill="#0000FF"/>
<path class="atom-15" d="M 135.3 81.8 L 136.7 84.1 Q 136.9 84.3, 137.1 84.7 Q 137.3 85.1, 137.3 85.1 L 137.3 81.8 L 137.9 81.8 L 137.9 86.1 L 137.3 86.1 L 135.8 83.6 Q 135.6 83.3, 135.4 83.0 Q 135.3 82.7, 135.2 82.5 L 135.2 86.1 L 134.7 86.1 L 134.7 81.8 L 135.3 81.8 " fill="#0000FF"/>
<path class="atom-15" d="M 134.6 77.1 L 135.2 77.1 L 135.2 78.9 L 137.4 78.9 L 137.4 77.1 L 137.9 77.1 L 137.9 81.4 L 137.4 81.4 L 137.4 79.4 L 135.2 79.4 L 135.2 81.4 L 134.6 81.4 L 134.6 77.1 " fill="#0000FF"/>
<path class="atom-20" d="M 188.1 97.5 Q 188.6 97.6, 188.8 97.9 Q 189.0 98.1, 189.0 98.5 Q 189.0 99.1, 188.6 99.4 Q 188.2 99.7, 187.5 99.7 L 186.1 99.7 L 186.1 95.5 L 187.3 95.5 Q 188.1 95.5, 188.4 95.8 Q 188.8 96.1, 188.8 96.6 Q 188.8 97.2, 188.1 97.5 M 186.7 96.0 L 186.7 97.3 L 187.3 97.3 Q 187.8 97.3, 188.0 97.1 Q 188.2 96.9, 188.2 96.6 Q 188.2 96.0, 187.3 96.0 L 186.7 96.0 M 187.5 99.2 Q 187.9 99.2, 188.1 99.0 Q 188.4 98.9, 188.4 98.5 Q 188.4 98.1, 188.1 98.0 Q 187.9 97.8, 187.4 97.8 L 186.7 97.8 L 186.7 99.2 L 187.5 99.2 " fill="#7F4C19"/>
<path class="atom-20" d="M 189.9 96.6 L 190.0 97.1 Q 190.3 96.6, 190.9 96.6 Q 191.0 96.6, 191.2 96.6 L 191.2 97.2 Q 190.9 97.1, 190.8 97.1 Q 190.5 97.1, 190.3 97.2 Q 190.2 97.3, 190.0 97.5 L 190.0 99.7 L 189.5 99.7 L 189.5 96.6 L 189.9 96.6 " fill="#7F4C19"/>
<path class="atom-23" d="M 153.7 63.0 L 156.3 63.0 L 156.3 63.5 L 154.3 63.5 L 154.3 64.8 L 156.0 64.8 L 156.0 65.3 L 154.3 65.3 L 154.3 67.3 L 153.7 67.3 L 153.7 63.0 " fill="#33CCCC"/>
<path class="atom-27" d="M 88.9 58.8 L 89.5 58.8 L 89.5 60.6 L 91.7 60.6 L 91.7 58.8 L 92.3 58.8 L 92.3 63.0 L 91.7 63.0 L 91.7 61.0 L 89.5 61.0 L 89.5 63.0 L 88.9 63.0 L 88.9 58.8 " fill="#0000FF"/>
<path class="atom-27" d="M 93.4 58.8 L 94.8 61.0 Q 95.0 61.2, 95.2 61.6 Q 95.4 62.0, 95.4 62.1 L 95.4 58.8 L 96.0 58.8 L 96.0 63.0 L 95.4 63.0 L 93.9 60.5 Q 93.7 60.3, 93.5 59.9 Q 93.4 59.6, 93.3 59.5 L 93.3 63.0 L 92.8 63.0 L 92.8 58.8 L 93.4 58.8 " fill="#0000FF"/>
<path class="atom-29" d="M 114.6 54.9 Q 114.6 53.9, 115.1 53.3 Q 115.6 52.8, 116.6 52.8 Q 117.5 52.8, 118.0 53.3 Q 118.5 53.9, 118.5 54.9 Q 118.5 55.9, 118.0 56.5 Q 117.5 57.1, 116.6 57.1 Q 115.6 57.1, 115.1 56.5 Q 114.6 56.0, 114.6 54.9 M 116.6 56.6 Q 117.2 56.6, 117.5 56.2 Q 117.9 55.8, 117.9 54.9 Q 117.9 54.1, 117.5 53.7 Q 117.2 53.2, 116.6 53.2 Q 115.9 53.2, 115.5 53.7 Q 115.2 54.1, 115.2 54.9 Q 115.2 55.8, 115.5 56.2 Q 115.9 56.6, 116.6 56.6 " fill="#FF0000"/>
<path d="M 67.5 188.1 Q 67.5 185.3, 68.8 183.8 Q 70.2 182.3, 72.7 182.3 Q 75.0 182.3, 76.3 184.0 L 75.2 184.8 Q 74.3 183.6, 72.7 183.6 Q 71.0 183.6, 70.0 184.8 Q 69.1 185.9, 69.1 188.1 Q 69.1 190.3, 70.1 191.5 Q 71.0 192.6, 72.8 192.6 Q 74.1 192.6, 75.5 191.9 L 76.0 193.1 Q 75.4 193.5, 74.5 193.7 Q 73.6 193.9, 72.6 193.9 Q 70.2 193.9, 68.8 192.4 Q 67.5 190.9, 67.5 188.1 " fill="#000000"/>
<path d="M 77.6 181.6 L 79.1 181.6 L 79.1 193.8 L 77.6 193.8 L 77.6 181.6 " fill="#000000"/>
<path d="M 87.3 185.6 L 87.3 193.8 L 86.1 193.8 L 85.9 192.6 Q 84.8 193.9, 83.1 193.9 Q 81.7 193.9, 81.0 193.2 Q 80.3 192.4, 80.3 191.0 L 80.3 185.6 L 81.8 185.6 L 81.8 190.9 Q 81.8 191.9, 82.2 192.3 Q 82.6 192.7, 83.4 192.7 Q 84.2 192.7, 84.8 192.4 Q 85.4 192.1, 85.8 191.4 L 85.8 185.6 L 87.3 185.6 " fill="#000000"/>
<path d="M 88.6 192.1 Q 89.3 192.4, 89.8 192.5 Q 90.3 192.7, 90.9 192.7 Q 91.6 192.7, 92.0 192.4 Q 92.4 192.1, 92.4 191.5 Q 92.4 191.1, 92.2 190.9 Q 92.0 190.6, 91.7 190.5 Q 91.5 190.4, 90.8 190.2 Q 90.7 190.2, 89.9 189.9 Q 89.2 189.6, 88.8 189.1 Q 88.4 188.6, 88.4 187.8 Q 88.4 186.8, 89.2 186.1 Q 89.9 185.4, 91.4 185.4 Q 92.0 185.4, 92.6 185.6 Q 93.1 185.7, 93.8 185.9 L 93.4 187.1 Q 92.8 186.9, 92.4 186.8 Q 91.9 186.7, 91.4 186.7 Q 90.7 186.7, 90.3 187.0 Q 89.9 187.3, 89.9 187.7 Q 89.9 188.2, 90.2 188.4 Q 90.5 188.6, 91.2 188.9 Q 91.4 188.9, 91.5 189.0 L 91.9 189.1 Q 92.6 189.3, 93.0 189.6 Q 93.4 189.8, 93.7 190.2 Q 93.9 190.7, 93.9 191.4 Q 93.9 192.6, 93.1 193.3 Q 92.3 193.9, 90.9 193.9 Q 90.1 193.9, 89.5 193.8 Q 88.8 193.6, 88.1 193.3 L 88.6 192.1 " fill="#000000"/>
<path d="M 94.4 186.7 L 94.4 185.6 L 96.0 185.6 L 96.2 183.2 L 97.4 183.2 L 97.4 185.6 L 99.9 185.6 L 99.9 186.7 L 97.4 186.7 L 97.4 191.3 Q 97.4 192.7, 98.6 192.7 Q 99.0 192.7, 99.7 192.5 L 100.0 193.5 Q 99.1 193.9, 98.3 193.9 Q 97.2 193.9, 96.5 193.2 Q 95.9 192.6, 95.9 191.3 L 95.9 186.7 L 94.4 186.7 " fill="#000000"/>
<path d="M 100.7 189.7 Q 100.7 187.6, 101.7 186.5 Q 102.7 185.4, 104.6 185.4 Q 106.4 185.4, 107.2 186.5 Q 108.0 187.6, 108.0 189.6 L 108.0 189.9 L 102.3 189.9 Q 102.3 191.3, 102.9 192.0 Q 103.5 192.7, 104.7 192.7 Q 105.4 192.7, 105.9 192.6 Q 106.5 192.4, 107.3 192.1 L 107.7 193.1 Q 106.9 193.5, 106.1 193.7 Q 105.4 193.9, 104.6 193.9 Q 102.8 193.9, 101.8 192.8 Q 100.7 191.7, 100.7 189.7 M 104.6 186.6 Q 103.6 186.6, 103.1 187.1 Q 102.5 187.7, 102.3 188.7 L 106.4 188.7 Q 106.3 187.6, 105.9 187.1 Q 105.4 186.6, 104.6 186.6 " fill="#000000"/>
<path d="M 110.6 185.6 L 110.8 186.7 Q 111.6 185.4, 113.0 185.4 Q 113.5 185.4, 114.1 185.6 L 113.9 186.9 Q 113.2 186.8, 112.8 186.8 Q 112.1 186.8, 111.7 187.0 Q 111.2 187.3, 110.9 187.9 L 110.9 193.8 L 109.4 193.8 L 109.4 185.6 L 110.6 185.6 " fill="#000000"/>
<path d="" fill="#000000"/>
<path d="M 119.6 192.5 L 122.1 192.5 L 122.1 184.0 L 119.3 184.9 L 119.0 183.9 L 122.4 182.4 L 123.6 182.6 L 123.6 192.5 L 125.8 192.5 L 125.8 193.8 L 119.6 193.8 L 119.6 192.5 " fill="#000000"/>
<path class="bond-0 atom-0 atom-1" d="M 338.6,55.7 L 338.2,69.0" style="fill:none;fill-rule:evenodd;stroke:#000000;stroke-width:2.0px;stroke-linecap:butt;stroke-linejoin:miter;stroke-opacity:1"/>
<path class="bond-1 atom-1 atom-2" d="M 338.2,69.0 L 349.4,76.0" style="fill:none;fill-rule:evenodd;stroke:#000000;stroke-width:2.0px;stroke-linecap:butt;stroke-linejoin:miter;stroke-opacity:1"/>
<path class="bond-2 atom-1 atom-3" d="M 338.2,69.0 L 333.3,71.6" style="fill:none;fill-rule:evenodd;stroke:#000000;stroke-width:2.0px;stroke-linecap:butt;stroke-linejoin:miter;stroke-opacity:1"/>
<path class="bond-2 atom-1 atom-3" d="M 333.3,71.6 L 328.4,74.2" style="fill:none;fill-rule:evenodd;stroke:#0000FF;stroke-width:2.0px;stroke-linecap:butt;stroke-linejoin:miter;stroke-opacity:1"/>
<path class="bond-3 atom-3 atom-4" d="M 324.5,74.3 L 316.4,70.3" style="fill:none;fill-rule:evenodd;stroke:#0000FF;stroke-width:2.0px;stroke-linecap:butt;stroke-linejoin:miter;stroke-opacity:1"/>
<path class="bond-19 atom-19 atom-3" d="M 324.6,88.3 L 325.4,83.0" style="fill:none;fill-rule:evenodd;stroke:#000000;stroke-width:2.0px;stroke-linecap:butt;stroke-linejoin:miter;stroke-opacity:1"/>
<path class="bond-19 atom-19 atom-3" d="M 325.4,83.0 L 326.1,77.7" style="fill:none;fill-rule:evenodd;stroke:#0000FF;stroke-width:2.0px;stroke-linecap:butt;stroke-linejoin:miter;stroke-opacity:1"/>
<path class="bond-4 atom-4 atom-5" d="M 312.6,71.4 L 309.0,75.2" style="fill:none;fill-rule:evenodd;stroke:#0000FF;stroke-width:2.0px;stroke-linecap:butt;stroke-linejoin:miter;stroke-opacity:1"/>
<path class="bond-4 atom-4 atom-5" d="M 309.0,75.2 L 305.3,78.9" style="fill:none;fill-rule:evenodd;stroke:#000000;stroke-width:2.0px;stroke-linecap:butt;stroke-linejoin:miter;stroke-opacity:1"/>
<path class="bond-4 atom-4 atom-5" d="M 313.4,74.4 L 310.9,77.0" style="fill:none;fill-rule:evenodd;stroke:#0000FF;stroke-width:2.0px;stroke-linecap:butt;stroke-linejoin:miter;stroke-opacity:1"/>
<path class="bond-4 atom-4 atom-5" d="M 310.9,77.0 L 308.3,79.6" style="fill:none;fill-rule:evenodd;stroke:#000000;stroke-width:2.0px;stroke-linecap:butt;stroke-linejoin:miter;stroke-opacity:1"/>
<path class="bond-5 atom-5 atom-6" d="M 305.3,78.9 L 292.2,77.1" style="fill:none;fill-rule:evenodd;stroke:#000000;stroke-width:2.0px;stroke-linecap:butt;stroke-linejoin:miter;stroke-opacity:1"/>
<path class="bond-12 atom-5 atom-13" d="M 305.3,78.9 L 311.5,90.6" style="fill:none;fill-rule:evenodd;stroke:#000000;stroke-width:2.0px;stroke-linecap:butt;stroke-linejoin:miter;stroke-opacity:1"/>
<path class="bond-6 atom-6 atom-7" d="M 292.2,77.1 L 287.2,64.8" style="fill:none;fill-rule:evenodd;stroke:#000000;stroke-width:2.0px;stroke-linecap:butt;stroke-linejoin:miter;stroke-opacity:1"/>
<path class="bond-6 atom-6 atom-7" d="M 289.0,76.2 L 285.5,67.6" style="fill:none;fill-rule:evenodd;stroke:#000000;stroke-width:2.0px;stroke-linecap:butt;stroke-linejoin:miter;stroke-opacity:1"/>
<path class="bond-20 atom-12 atom-6" d="M 284.0,87.5 L 292.2,77.1" style="fill:none;fill-rule:evenodd;stroke:#000000;stroke-width:2.0px;stroke-linecap:butt;stroke-linejoin:miter;stroke-opacity:1"/>
<path class="bond-7 atom-7 atom-8" d="M 287.2,64.8 L 274.1,62.9" style="fill:none;fill-rule:evenodd;stroke:#000000;stroke-width:2.0px;stroke-linecap:butt;stroke-linejoin:miter;stroke-opacity:1"/>
<path class="bond-8 atom-8 atom-9" d="M 274.1,62.9 L 265.9,73.4" style="fill:none;fill-rule:evenodd;stroke:#000000;stroke-width:2.0px;stroke-linecap:butt;stroke-linejoin:miter;stroke-opacity:1"/>
<path class="bond-8 atom-8 atom-9" d="M 275.0,66.1 L 269.2,73.4" style="fill:none;fill-rule:evenodd;stroke:#000000;stroke-width:2.0px;stroke-linecap:butt;stroke-linejoin:miter;stroke-opacity:1"/>
<path class="bond-9 atom-9 atom-10" d="M 265.9,73.4 L 270.9,85.7" style="fill:none;fill-rule:evenodd;stroke:#000000;stroke-width:2.0px;stroke-linecap:butt;stroke-linejoin:miter;stroke-opacity:1"/>
<path class="bond-10 atom-10 atom-11" d="M 270.9,85.7 L 267.8,89.7" style="fill:none;fill-rule:evenodd;stroke:#000000;stroke-width:2.0px;stroke-linecap:butt;stroke-linejoin:miter;stroke-opacity:1"/>
<path class="bond-10 atom-10 atom-11" d="M 267.8,89.7 L 264.7,93.6" style="fill:none;fill-rule:evenodd;stroke:#FF0000;stroke-width:2.0px;stroke-linecap:butt;stroke-linejoin:miter;stroke-opacity:1"/>
<path class="bond-11 atom-10 atom-12" d="M 270.9,85.7 L 284.0,87.5" style="fill:none;fill-rule:evenodd;stroke:#000000;stroke-width:2.0px;stroke-linecap:butt;stroke-linejoin:miter;stroke-opacity:1"/>
<path class="bond-11 atom-10 atom-12" d="M 273.2,83.3 L 282.4,84.6" style="fill:none;fill-rule:evenodd;stroke:#000000;stroke-width:2.0px;stroke-linecap:butt;stroke-linejoin:miter;stroke-opacity:1"/>
<path class="bond-13 atom-13 atom-14" d="M 311.5,90.6 L 307.0,103.1" style="fill:none;fill-rule:evenodd;stroke:#000000;stroke-width:2.0px;stroke-linecap:butt;stroke-linejoin:miter;stroke-opacity:1"/>
<path class="bond-13 atom-13 atom-14" d="M 313.4,93.4 L 310.2,102.1" style="fill:none;fill-rule:evenodd;stroke:#000000;stroke-width:2.0px;stroke-linecap:butt;stroke-linejoin:miter;stroke-opacity:1"/>
<path class="bond-21 atom-19 atom-13" d="M 324.6,88.3 L 311.5,90.6" style="fill:none;fill-rule:evenodd;stroke:#000000;stroke-width:2.0px;stroke-linecap:butt;stroke-linejoin:miter;stroke-opacity:1"/>
<path class="bond-14 atom-14 atom-15" d="M 307.0,103.1 L 301.4,104.1" style="fill:none;fill-rule:evenodd;stroke:#000000;stroke-width:2.0px;stroke-linecap:butt;stroke-linejoin:miter;stroke-opacity:1"/>
<path class="bond-14 atom-14 atom-15" d="M 301.4,104.1 L 295.9,105.1" style="fill:none;fill-rule:evenodd;stroke:#0000FF;stroke-width:2.0px;stroke-linecap:butt;stroke-linejoin:miter;stroke-opacity:1"/>
<path class="bond-15 atom-14 atom-16" d="M 307.0,103.1 L 310.3,107.0" style="fill:none;fill-rule:evenodd;stroke:#000000;stroke-width:2.0px;stroke-linecap:butt;stroke-linejoin:miter;stroke-opacity:1"/>
<path class="bond-15 atom-14 atom-16" d="M 310.3,107.0 L 313.6,110.9" style="fill:none;fill-rule:evenodd;stroke:#0000FF;stroke-width:2.0px;stroke-linecap:butt;stroke-linejoin:miter;stroke-opacity:1"/>
<path class="bond-16 atom-16 atom-17" d="M 317.5,112.9 L 323.0,111.9" style="fill:none;fill-rule:evenodd;stroke:#0000FF;stroke-width:2.0px;stroke-linecap:butt;stroke-linejoin:miter;stroke-opacity:1"/>
<path class="bond-16 atom-16 atom-17" d="M 323.0,111.9 L 328.6,111.0" style="fill:none;fill-rule:evenodd;stroke:#000000;stroke-width:2.0px;stroke-linecap:butt;stroke-linejoin:miter;stroke-opacity:1"/>
<path class="bond-16 atom-16 atom-17" d="M 318.7,110.0 L 322.6,109.3" style="fill:none;fill-rule:evenodd;stroke:#0000FF;stroke-width:2.0px;stroke-linecap:butt;stroke-linejoin:miter;stroke-opacity:1"/>
<path class="bond-16 atom-16 atom-17" d="M 322.6,109.3 L 326.5,108.6" style="fill:none;fill-rule:evenodd;stroke:#000000;stroke-width:2.0px;stroke-linecap:butt;stroke-linejoin:miter;stroke-opacity:1"/>
<path class="bond-17 atom-17 atom-18" d="M 328.6,111.0 L 330.4,106.0" style="fill:none;fill-rule:evenodd;stroke:#000000;stroke-width:2.0px;stroke-linecap:butt;stroke-linejoin:miter;stroke-opacity:1"/>
<path class="bond-17 atom-17 atom-18" d="M 330.4,106.0 L 332.2,101.0" style="fill:none;fill-rule:evenodd;stroke:#0000FF;stroke-width:2.0px;stroke-linecap:butt;stroke-linejoin:miter;stroke-opacity:1"/>
<path class="bond-18 atom-18 atom-19" d="M 331.2,96.2 L 327.9,92.3" style="fill:none;fill-rule:evenodd;stroke:#0000FF;stroke-width:2.0px;stroke-linecap:butt;stroke-linejoin:miter;stroke-opacity:1"/>
<path class="bond-18 atom-18 atom-19" d="M 327.9,92.3 L 324.6,88.3" style="fill:none;fill-rule:evenodd;stroke:#000000;stroke-width:2.0px;stroke-linecap:butt;stroke-linejoin:miter;stroke-opacity:1"/>
<path class="bond-18 atom-18 atom-19" d="M 328.2,96.7 L 325.9,94.0" style="fill:none;fill-rule:evenodd;stroke:#0000FF;stroke-width:2.0px;stroke-linecap:butt;stroke-linejoin:miter;stroke-opacity:1"/>
<path class="bond-18 atom-18 atom-19" d="M 325.9,94.0 L 323.6,91.2" style="fill:none;fill-rule:evenodd;stroke:#000000;stroke-width:2.0px;stroke-linecap:butt;stroke-linejoin:miter;stroke-opacity:1"/>
<path class="atom-3" d="M 325.5 73.1 L 326.9 75.3 Q 327.0 75.5, 327.3 76.0 Q 327.5 76.4, 327.5 76.4 L 327.5 73.1 L 328.1 73.1 L 328.1 77.3 L 327.5 77.3 L 326.0 74.9 Q 325.8 74.6, 325.6 74.2 Q 325.5 73.9, 325.4 73.8 L 325.4 77.3 L 324.8 77.3 L 324.8 73.1 L 325.5 73.1 " fill="#0000FF"/>
<path class="atom-4" d="M 313.6 67.3 L 315.0 69.5 Q 315.1 69.7, 315.4 70.1 Q 315.6 70.5, 315.6 70.6 L 315.6 67.3 L 316.1 67.3 L 316.1 71.5 L 315.6 71.5 L 314.1 69.0 Q 313.9 68.8, 313.7 68.4 Q 313.5 68.1, 313.5 68.0 L 313.5 71.5 L 312.9 71.5 L 312.9 67.3 L 313.6 67.3 " fill="#0000FF"/>
<path class="atom-11" d="M 257.1 94.0 L 257.7 94.0 L 257.7 95.8 L 259.9 95.8 L 259.9 94.0 L 260.5 94.0 L 260.5 98.3 L 259.9 98.3 L 259.9 96.3 L 257.7 96.3 L 257.7 98.3 L 257.1 98.3 L 257.1 94.0 " fill="#FF0000"/>
<path class="atom-11" d="M 260.8 96.1 Q 260.8 95.1, 261.3 94.5 Q 261.8 94.0, 262.7 94.0 Q 263.7 94.0, 264.2 94.5 Q 264.7 95.1, 264.7 96.1 Q 264.7 97.2, 264.2 97.7 Q 263.6 98.3, 262.7 98.3 Q 261.8 98.3, 261.3 97.7 Q 260.8 97.2, 260.8 96.1 M 262.7 97.9 Q 263.4 97.9, 263.7 97.4 Q 264.1 97.0, 264.1 96.1 Q 264.1 95.3, 263.7 94.9 Q 263.4 94.4, 262.7 94.4 Q 262.1 94.4, 261.7 94.9 Q 261.4 95.3, 261.4 96.1 Q 261.4 97.0, 261.7 97.4 Q 262.1 97.9, 262.7 97.9 " fill="#FF0000"/>
<path class="atom-15" d="M 286.4 103.3 L 287.0 103.3 L 287.0 105.1 L 289.2 105.1 L 289.2 103.3 L 289.7 103.3 L 289.7 107.5 L 289.2 107.5 L 289.2 105.6 L 287.0 105.6 L 287.0 107.5 L 286.4 107.5 L 286.4 103.3 " fill="#0000FF"/>
<path class="atom-15" d="M 290.0 107.4 Q 290.1 107.1, 290.3 107.0 Q 290.5 106.8, 290.9 106.8 Q 291.3 106.8, 291.5 107.0 Q 291.8 107.3, 291.8 107.7 Q 291.8 108.1, 291.5 108.5 Q 291.2 108.9, 290.5 109.3 L 291.8 109.3 L 291.8 109.6 L 289.9 109.6 L 289.9 109.4 Q 290.5 109.0, 290.8 108.7 Q 291.1 108.4, 291.2 108.2 Q 291.4 108.0, 291.4 107.7 Q 291.4 107.4, 291.3 107.3 Q 291.1 107.1, 290.9 107.1 Q 290.7 107.1, 290.5 107.2 Q 290.4 107.3, 290.3 107.5 L 290.0 107.4 " fill="#0000FF"/>
<path class="atom-15" d="M 293.0 103.3 L 294.4 105.5 Q 294.5 105.7, 294.8 106.1 Q 295.0 106.5, 295.0 106.6 L 295.0 103.3 L 295.6 103.3 L 295.6 107.5 L 295.0 107.5 L 293.5 105.1 Q 293.3 104.8, 293.1 104.4 Q 292.9 104.1, 292.9 104.0 L 292.9 107.5 L 292.3 107.5 L 292.3 103.3 L 293.0 103.3 " fill="#0000FF"/>
<path class="atom-16" d="M 314.6 111.1 L 316.0 113.4 Q 316.1 113.6, 316.3 114.0 Q 316.6 114.4, 316.6 114.4 L 316.6 111.1 L 317.1 111.1 L 317.1 115.4 L 316.6 115.4 L 315.1 112.9 Q 314.9 112.6, 314.7 112.3 Q 314.5 112.0, 314.5 111.9 L 314.5 115.4 L 313.9 115.4 L 313.9 111.1 L 314.6 111.1 " fill="#0000FF"/>
<path class="atom-18" d="M 332.2 96.4 L 333.6 98.6 Q 333.7 98.8, 333.9 99.2 Q 334.2 99.7, 334.2 99.7 L 334.2 96.4 L 334.7 96.4 L 334.7 100.6 L 334.2 100.6 L 332.7 98.2 Q 332.5 97.9, 332.3 97.5 Q 332.1 97.2, 332.1 97.1 L 332.1 100.6 L 331.5 100.6 L 331.5 96.4 L 332.2 96.4 " fill="#0000FF"/>
<path d="M 267.3 188.1 Q 267.3 185.3, 268.6 183.8 Q 269.9 182.3, 272.4 182.3 Q 274.8 182.3, 276.0 184.0 L 275.0 184.8 Q 274.0 183.6, 272.4 183.6 Q 270.7 183.6, 269.8 184.8 Q 268.9 185.9, 268.9 188.1 Q 268.9 190.3, 269.8 191.5 Q 270.8 192.6, 272.6 192.6 Q 273.9 192.6, 275.3 191.9 L 275.8 193.1 Q 275.2 193.5, 274.3 193.7 Q 273.4 193.9, 272.4 193.9 Q 269.9 193.9, 268.6 192.4 Q 267.3 190.9, 267.3 188.1 " fill="#000000"/>
<path d="M 277.4 181.6 L 278.9 181.6 L 278.9 193.8 L 277.4 193.8 L 277.4 181.6 " fill="#000000"/>
<path d="M 287.1 185.6 L 287.1 193.8 L 285.9 193.8 L 285.7 192.6 Q 284.6 193.9, 282.9 193.9 Q 281.5 193.9, 280.8 193.2 Q 280.1 192.4, 280.1 191.0 L 280.1 185.6 L 281.6 185.6 L 281.6 190.9 Q 281.6 191.9, 282.0 192.3 Q 282.3 192.7, 283.2 192.7 Q 283.9 192.7, 284.6 192.4 Q 285.2 192.1, 285.6 191.4 L 285.6 185.6 L 287.1 185.6 " fill="#000000"/>
<path d="M 288.3 192.1 Q 289.1 192.4, 289.6 192.5 Q 290.1 192.7, 290.7 192.7 Q 291.4 192.7, 291.8 192.4 Q 292.2 192.1, 292.2 191.5 Q 292.2 191.1, 292.0 190.9 Q 291.8 190.6, 291.5 190.5 Q 291.2 190.4, 290.5 190.2 Q 290.4 190.2, 289.7 189.9 Q 288.9 189.6, 288.5 189.1 Q 288.2 188.6, 288.2 187.8 Q 288.2 186.8, 288.9 186.1 Q 289.7 185.4, 291.2 185.4 Q 291.8 185.4, 292.3 185.6 Q 292.9 185.7, 293.5 185.9 L 293.1 187.1 Q 292.6 186.9, 292.1 186.8 Q 291.7 186.7, 291.2 186.7 Q 290.4 186.7, 290.0 187.0 Q 289.7 187.3, 289.7 187.7 Q 289.7 188.2, 290.0 188.4 Q 290.3 188.6, 290.9 188.9 Q 291.1 188.9, 291.3 189.0 L 291.6 189.1 Q 292.3 189.3, 292.7 189.6 Q 293.1 189.8, 293.4 190.2 Q 293.7 190.7, 293.7 191.4 Q 293.7 192.6, 292.9 193.3 Q 292.0 193.9, 290.7 193.9 Q 289.9 193.9, 289.2 193.8 Q 288.6 193.6, 287.9 193.3 L 288.3 192.1 " fill="#000000"/>
<path d="M 294.2 186.7 L 294.2 185.6 L 295.7 185.6 L 296.0 183.2 L 297.1 183.2 L 297.1 185.6 L 299.6 185.6 L 299.6 186.7 L 297.1 186.7 L 297.1 191.3 Q 297.1 192.7, 298.3 192.7 Q 298.8 192.7, 299.5 192.5 L 299.8 193.5 Q 298.9 193.9, 298.0 193.9 Q 297.0 193.9, 296.3 193.2 Q 295.6 192.6, 295.6 191.3 L 295.6 186.7 L 294.2 186.7 " fill="#000000"/>
<path d="M 300.5 189.7 Q 300.5 187.6, 301.5 186.5 Q 302.5 185.4, 304.3 185.4 Q 306.2 185.4, 307.0 186.5 Q 307.8 187.6, 307.8 189.6 L 307.8 189.9 L 302.0 189.9 Q 302.1 191.3, 302.7 192.0 Q 303.3 192.7, 304.5 192.7 Q 305.1 192.7, 305.7 192.6 Q 306.3 192.4, 307.0 192.1 L 307.5 193.1 Q 306.6 193.5, 305.9 193.7 Q 305.2 193.9, 304.4 193.9 Q 302.5 193.9, 301.5 192.8 Q 300.5 191.7, 300.5 189.7 M 304.3 186.6 Q 303.4 186.6, 302.8 187.1 Q 302.3 187.7, 302.1 188.7 L 306.2 188.7 Q 306.1 187.6, 305.6 187.1 Q 305.2 186.6, 304.3 186.6 " fill="#000000"/>
<path d="M 310.3 185.6 L 310.5 186.7 Q 311.4 185.4, 312.8 185.4 Q 313.2 185.4, 313.9 185.6 L 313.6 186.9 Q 312.9 186.8, 312.5 186.8 Q 311.9 186.8, 311.4 187.0 Q 311.0 187.3, 310.6 187.9 L 310.6 193.8 L 309.1 193.8 L 309.1 185.6 L 310.3 185.6 " fill="#000000"/>
<path d="" fill="#000000"/>
<path d="M 318.7 184.6 Q 319.1 183.5, 320.1 182.9 Q 321.1 182.3, 322.5 182.3 Q 324.2 182.3, 325.1 183.3 Q 326.1 184.2, 326.1 185.8 Q 326.1 187.5, 324.8 189.1 Q 323.6 190.6, 321.1 192.5 L 326.3 192.5 L 326.3 193.8 L 318.7 193.8 L 318.7 192.7 Q 320.8 191.2, 322.0 190.1 Q 323.3 189.0, 323.9 188.0 Q 324.5 187.0, 324.5 185.9 Q 324.5 184.8, 323.9 184.2 Q 323.4 183.6, 322.5 183.6 Q 321.5 183.6, 320.9 184.0 Q 320.3 184.3, 319.9 185.2 L 318.7 184.6 " fill="#000000"/>
<path class="bond-0 atom-0 atom-1" d="M 478.6,124.0 L 483.7,125.8" style="fill:none;fill-rule:evenodd;stroke:#000000;stroke-width:2.0px;stroke-linecap:butt;stroke-linejoin:miter;stroke-opacity:1"/>
<path class="bond-0 atom-0 atom-1" d="M 483.7,125.8 L 488.9,127.5" style="fill:none;fill-rule:evenodd;stroke:#FF0000;stroke-width:2.0px;stroke-linecap:butt;stroke-linejoin:miter;stroke-opacity:1"/>
<path class="bond-1 atom-1 atom-2" d="M 493.4,126.3 L 497.3,122.9" style="fill:none;fill-rule:evenodd;stroke:#FF0000;stroke-width:2.0px;stroke-linecap:butt;stroke-linejoin:miter;stroke-opacity:1"/>
<path class="bond-1 atom-1 atom-2" d="M 497.3,122.9 L 501.1,119.6" style="fill:none;fill-rule:evenodd;stroke:#000000;stroke-width:2.0px;stroke-linecap:butt;stroke-linejoin:miter;stroke-opacity:1"/>
<path class="bond-2 atom-2 atom-3" d="M 501.1,119.6 L 513.7,123.8" style="fill:none;fill-rule:evenodd;stroke:#000000;stroke-width:2.0px;stroke-linecap:butt;stroke-linejoin:miter;stroke-opacity:1"/>
<path class="bond-2 atom-2 atom-3" d="M 503.9,117.7 L 512.7,120.7" style="fill:none;fill-rule:evenodd;stroke:#000000;stroke-width:2.0px;stroke-linecap:butt;stroke-linejoin:miter;stroke-opacity:1"/>
<path class="bond-30 atom-20 atom-2" d="M 498.6,106.5 L 501.1,119.6" style="fill:none;fill-rule:evenodd;stroke:#000000;stroke-width:2.0px;stroke-linecap:butt;stroke-linejoin:miter;stroke-opacity:1"/>
<path class="bond-3 atom-3 atom-4" d="M 513.7,123.8 L 523.7,115.1" style="fill:none;fill-rule:evenodd;stroke:#000000;stroke-width:2.0px;stroke-linecap:butt;stroke-linejoin:miter;stroke-opacity:1"/>
<path class="bond-4 atom-4 atom-5" d="M 523.7,115.1 L 529.0,116.9" style="fill:none;fill-rule:evenodd;stroke:#000000;stroke-width:2.0px;stroke-linecap:butt;stroke-linejoin:miter;stroke-opacity:1"/>
<path class="bond-4 atom-4 atom-5" d="M 529.0,116.9 L 534.3,118.7" style="fill:none;fill-rule:evenodd;stroke:#0000FF;stroke-width:2.0px;stroke-linecap:butt;stroke-linejoin:miter;stroke-opacity:1"/>
<path class="bond-4 atom-4 atom-5" d="M 526.1,113.1 L 529.8,114.4" style="fill:none;fill-rule:evenodd;stroke:#000000;stroke-width:2.0px;stroke-linecap:butt;stroke-linejoin:miter;stroke-opacity:1"/>
<path class="bond-4 atom-4 atom-5" d="M 529.8,114.4 L 533.5,115.6" style="fill:none;fill-rule:evenodd;stroke:#0000FF;stroke-width:2.0px;stroke-linecap:butt;stroke-linejoin:miter;stroke-opacity:1"/>
<path class="bond-32 atom-18 atom-4" d="M 521.1,102.1 L 523.7,115.1" style="fill:none;fill-rule:evenodd;stroke:#000000;stroke-width:2.0px;stroke-linecap:butt;stroke-linejoin:miter;stroke-opacity:1"/>
<path class="bond-5 atom-5 atom-6" d="M 538.2,117.7 L 542.2,114.1" style="fill:none;fill-rule:evenodd;stroke:#0000FF;stroke-width:2.0px;stroke-linecap:butt;stroke-linejoin:miter;stroke-opacity:1"/>
<path class="bond-5 atom-5 atom-6" d="M 542.2,114.1 L 546.2,110.6" style="fill:none;fill-rule:evenodd;stroke:#000000;stroke-width:2.0px;stroke-linecap:butt;stroke-linejoin:miter;stroke-opacity:1"/>
<path class="bond-6 atom-6 atom-7" d="M 546.2,110.6 L 545.2,105.3" style="fill:none;fill-rule:evenodd;stroke:#000000;stroke-width:2.0px;stroke-linecap:butt;stroke-linejoin:miter;stroke-opacity:1"/>
<path class="bond-6 atom-6 atom-7" d="M 545.2,105.3 L 544.1,100.1" style="fill:none;fill-rule:evenodd;stroke:#0000FF;stroke-width:2.0px;stroke-linecap:butt;stroke-linejoin:miter;stroke-opacity:1"/>
<path class="bond-6 atom-6 atom-7" d="M 543.3,109.5 L 542.6,105.9" style="fill:none;fill-rule:evenodd;stroke:#000000;stroke-width:2.0px;stroke-linecap:butt;stroke-linejoin:miter;stroke-opacity:1"/>
<path class="bond-6 atom-6 atom-7" d="M 542.6,105.9 L 541.8,102.2" style="fill:none;fill-rule:evenodd;stroke:#0000FF;stroke-width:2.0px;stroke-linecap:butt;stroke-linejoin:miter;stroke-opacity:1"/>
<path class="bond-7 atom-7 atom-8" d="M 541.7,96.9 L 536.4,95.1" style="fill:none;fill-rule:evenodd;stroke:#0000FF;stroke-width:2.0px;stroke-linecap:butt;stroke-linejoin:miter;stroke-opacity:1"/>
<path class="bond-7 atom-7 atom-8" d="M 536.4,95.1 L 531.1,93.3" style="fill:none;fill-rule:evenodd;stroke:#000000;stroke-width:2.0px;stroke-linecap:butt;stroke-linejoin:miter;stroke-opacity:1"/>
<path class="bond-8 atom-8 atom-9" d="M 531.1,93.3 L 530.0,88.1" style="fill:none;fill-rule:evenodd;stroke:#000000;stroke-width:2.0px;stroke-linecap:butt;stroke-linejoin:miter;stroke-opacity:1"/>
<path class="bond-8 atom-8 atom-9" d="M 530.0,88.1 L 529.0,82.8" style="fill:none;fill-rule:evenodd;stroke:#0000FF;stroke-width:2.0px;stroke-linecap:butt;stroke-linejoin:miter;stroke-opacity:1"/>
<path class="bond-17 atom-8 atom-18" d="M 531.1,93.3 L 521.1,102.1" style="fill:none;fill-rule:evenodd;stroke:#000000;stroke-width:2.0px;stroke-linecap:butt;stroke-linejoin:miter;stroke-opacity:1"/>
<path class="bond-17 atom-8 atom-18" d="M 531.3,96.6 L 524.3,102.8" style="fill:none;fill-rule:evenodd;stroke:#000000;stroke-width:2.0px;stroke-linecap:butt;stroke-linejoin:miter;stroke-opacity:1"/>
<path class="bond-9 atom-9 atom-10" d="M 530.4,78.6 L 534.5,75.1" style="fill:none;fill-rule:evenodd;stroke:#0000FF;stroke-width:2.0px;stroke-linecap:butt;stroke-linejoin:miter;stroke-opacity:1"/>
<path class="bond-9 atom-9 atom-10" d="M 534.5,75.1 L 538.5,71.6" style="fill:none;fill-rule:evenodd;stroke:#000000;stroke-width:2.0px;stroke-linecap:butt;stroke-linejoin:miter;stroke-opacity:1"/>
<path class="bond-10 atom-10 atom-11" d="M 538.5,71.6 L 551.0,75.9" style="fill:none;fill-rule:evenodd;stroke:#000000;stroke-width:2.0px;stroke-linecap:butt;stroke-linejoin:miter;stroke-opacity:1"/>
<path class="bond-10 atom-10 atom-11" d="M 541.2,69.7 L 550.0,72.7" style="fill:none;fill-rule:evenodd;stroke:#000000;stroke-width:2.0px;stroke-linecap:butt;stroke-linejoin:miter;stroke-opacity:1"/>
<path class="bond-33 atom-17 atom-10" d="M 535.9,58.6 L 538.5,71.6" style="fill:none;fill-rule:evenodd;stroke:#000000;stroke-width:2.0px;stroke-linecap:butt;stroke-linejoin:miter;stroke-opacity:1"/>
<path class="bond-11 atom-11 atom-12" d="M 551.0,75.9 L 561.0,67.1" style="fill:none;fill-rule:evenodd;stroke:#000000;stroke-width:2.0px;stroke-linecap:butt;stroke-linejoin:miter;stroke-opacity:1"/>
<path class="bond-12 atom-12 atom-13" d="M 561.0,67.1 L 558.4,54.1" style="fill:none;fill-rule:evenodd;stroke:#000000;stroke-width:2.0px;stroke-linecap:butt;stroke-linejoin:miter;stroke-opacity:1"/>
<path class="bond-12 atom-12 atom-13" d="M 558.0,65.7 L 556.2,56.6" style="fill:none;fill-rule:evenodd;stroke:#000000;stroke-width:2.0px;stroke-linecap:butt;stroke-linejoin:miter;stroke-opacity:1"/>
<path class="bond-13 atom-13 atom-14" d="M 558.4,54.1 L 562.6,50.4" style="fill:none;fill-rule:evenodd;stroke:#000000;stroke-width:2.0px;stroke-linecap:butt;stroke-linejoin:miter;stroke-opacity:1"/>
<path class="bond-13 atom-13 atom-14" d="M 562.6,50.4 L 566.8,46.8" style="fill:none;fill-rule:evenodd;stroke:#33CCCC;stroke-width:2.0px;stroke-linecap:butt;stroke-linejoin:miter;stroke-opacity:1"/>
<path class="bond-14 atom-13 atom-15" d="M 558.4,54.1 L 545.9,49.8" style="fill:none;fill-rule:evenodd;stroke:#000000;stroke-width:2.0px;stroke-linecap:butt;stroke-linejoin:miter;stroke-opacity:1"/>
<path class="bond-15 atom-15 atom-16" d="M 545.9,49.8 L 544.8,44.7" style="fill:none;fill-rule:evenodd;stroke:#000000;stroke-width:2.0px;stroke-linecap:butt;stroke-linejoin:miter;stroke-opacity:1"/>
<path class="bond-15 atom-15 atom-16" d="M 544.8,44.7 L 543.8,39.5" style="fill:none;fill-rule:evenodd;stroke:#00CC00;stroke-width:2.0px;stroke-linecap:butt;stroke-linejoin:miter;stroke-opacity:1"/>
<path class="bond-16 atom-15 atom-17" d="M 545.9,49.8 L 535.9,58.6" style="fill:none;fill-rule:evenodd;stroke:#000000;stroke-width:2.0px;stroke-linecap:butt;stroke-linejoin:miter;stroke-opacity:1"/>
<path class="bond-16 atom-15 atom-17" d="M 546.1,53.1 L 539.1,59.3" style="fill:none;fill-rule:evenodd;stroke:#000000;stroke-width:2.0px;stroke-linecap:butt;stroke-linejoin:miter;stroke-opacity:1"/>
<path class="bond-18 atom-18 atom-19" d="M 521.1,102.1 L 508.5,97.8" style="fill:none;fill-rule:evenodd;stroke:#000000;stroke-width:2.0px;stroke-linecap:butt;stroke-linejoin:miter;stroke-opacity:1"/>
<path class="bond-19 atom-19 atom-20" d="M 508.5,97.8 L 498.6,106.5" style="fill:none;fill-rule:evenodd;stroke:#000000;stroke-width:2.0px;stroke-linecap:butt;stroke-linejoin:miter;stroke-opacity:1"/>
<path class="bond-19 atom-19 atom-20" d="M 508.8,101.1 L 501.8,107.2" style="fill:none;fill-rule:evenodd;stroke:#000000;stroke-width:2.0px;stroke-linecap:butt;stroke-linejoin:miter;stroke-opacity:1"/>
<path class="bond-20 atom-20 atom-21" d="M 498.6,106.5 L 493.4,104.8" style="fill:none;fill-rule:evenodd;stroke:#000000;stroke-width:2.0px;stroke-linecap:butt;stroke-linejoin:miter;stroke-opacity:1"/>
<path class="bond-20 atom-20 atom-21" d="M 493.4,104.8 L 488.3,103.0" style="fill:none;fill-rule:evenodd;stroke:#FF0000;stroke-width:2.0px;stroke-linecap:butt;stroke-linejoin:miter;stroke-opacity:1"/>
<path class="bond-21 atom-21 atom-22" d="M 485.5,99.8 L 484.5,94.5" style="fill:none;fill-rule:evenodd;stroke:#FF0000;stroke-width:2.0px;stroke-linecap:butt;stroke-linejoin:miter;stroke-opacity:1"/>
<path class="bond-21 atom-21 atom-22" d="M 484.5,94.5 L 483.4,89.3" style="fill:none;fill-rule:evenodd;stroke:#000000;stroke-width:2.0px;stroke-linecap:butt;stroke-linejoin:miter;stroke-opacity:1"/>
<path class="bond-22 atom-22 atom-23" d="M 483.4,89.3 L 470.9,85.0" style="fill:none;fill-rule:evenodd;stroke:#000000;stroke-width:2.0px;stroke-linecap:butt;stroke-linejoin:miter;stroke-opacity:1"/>
<path class="bond-23 atom-23 atom-24" d="M 470.9,85.0 L 468.3,72.0" style="fill:none;fill-rule:evenodd;stroke:#000000;stroke-width:2.0px;stroke-linecap:butt;stroke-linejoin:miter;stroke-opacity:1"/>
<path class="bond-24 atom-24 atom-25" d="M 468.3,72.0 L 463.0,70.2" style="fill:none;fill-rule:evenodd;stroke:#000000;stroke-width:2.0px;stroke-linecap:butt;stroke-linejoin:miter;stroke-opacity:1"/>
<path class="bond-24 atom-24 atom-25" d="M 463.0,70.2 L 457.7,68.4" style="fill:none;fill-rule:evenodd;stroke:#0000FF;stroke-width:2.0px;stroke-linecap:butt;stroke-linejoin:miter;stroke-opacity:1"/>
<path class="bond-25 atom-25 atom-26" d="M 455.2,65.3 L 454.2,60.0" style="fill:none;fill-rule:evenodd;stroke:#0000FF;stroke-width:2.0px;stroke-linecap:butt;stroke-linejoin:miter;stroke-opacity:1"/>
<path class="bond-25 atom-25 atom-26" d="M 454.2,60.0 L 453.2,54.7" style="fill:none;fill-rule:evenodd;stroke:#000000;stroke-width:2.0px;stroke-linecap:butt;stroke-linejoin:miter;stroke-opacity:1"/>
<path class="bond-31 atom-30 atom-25" d="M 445.8,76.4 L 449.8,72.9" style="fill:none;fill-rule:evenodd;stroke:#000000;stroke-width:2.0px;stroke-linecap:butt;stroke-linejoin:miter;stroke-opacity:1"/>
<path class="bond-31 atom-30 atom-25" d="M 449.8,72.9 L 453.8,69.4" style="fill:none;fill-rule:evenodd;stroke:#0000FF;stroke-width:2.0px;stroke-linecap:butt;stroke-linejoin:miter;stroke-opacity:1"/>
<path class="bond-26 atom-26 atom-27" d="M 453.2,54.7 L 440.6,50.4" style="fill:none;fill-rule:evenodd;stroke:#000000;stroke-width:2.0px;stroke-linecap:butt;stroke-linejoin:miter;stroke-opacity:1"/>
<path class="bond-27 atom-27 atom-28" d="M 440.6,50.4 L 430.6,59.2" style="fill:none;fill-rule:evenodd;stroke:#000000;stroke-width:2.0px;stroke-linecap:butt;stroke-linejoin:miter;stroke-opacity:1"/>
<path class="bond-28 atom-28 atom-29" d="M 430.6,59.2 L 433.2,72.2" style="fill:none;fill-rule:evenodd;stroke:#000000;stroke-width:2.0px;stroke-linecap:butt;stroke-linejoin:miter;stroke-opacity:1"/>
<path class="bond-29 atom-29 atom-30" d="M 433.2,72.2 L 445.8,76.4" style="fill:none;fill-rule:evenodd;stroke:#000000;stroke-width:2.0px;stroke-linecap:butt;stroke-linejoin:miter;stroke-opacity:1"/>
<path class="atom-1" d="M 489.2 128.3 Q 489.2 127.3, 489.7 126.7 Q 490.2 126.1, 491.2 126.1 Q 492.1 126.1, 492.6 126.7 Q 493.1 127.3, 493.1 128.3 Q 493.1 129.3, 492.6 129.9 Q 492.1 130.5, 491.2 130.5 Q 490.2 130.5, 489.7 129.9 Q 489.2 129.3, 489.2 128.3 M 491.2 130.0 Q 491.8 130.0, 492.2 129.6 Q 492.5 129.2, 492.5 128.3 Q 492.5 127.5, 492.2 127.0 Q 491.8 126.6, 491.2 126.6 Q 490.5 126.6, 490.2 127.0 Q 489.8 127.5, 489.8 128.3 Q 489.8 129.2, 490.2 129.6 Q 490.5 130.0, 491.2 130.0 " fill="#FF0000"/>
<path class="atom-5" d="M 535.3 117.2 L 536.7 119.5 Q 536.8 119.7, 537.0 120.1 Q 537.3 120.5, 537.3 120.5 L 537.3 117.2 L 537.8 117.2 L 537.8 121.5 L 537.3 121.5 L 535.8 119.0 Q 535.6 118.7, 535.4 118.4 Q 535.2 118.1, 535.2 118.0 L 535.2 121.5 L 534.6 121.5 L 534.6 117.2 L 535.3 117.2 " fill="#0000FF"/>
<path class="atom-7" d="M 542.7 95.5 L 544.1 97.7 Q 544.2 98.0, 544.4 98.4 Q 544.7 98.8, 544.7 98.8 L 544.7 95.5 L 545.2 95.5 L 545.2 99.7 L 544.7 99.7 L 543.2 97.3 Q 543.0 97.0, 542.8 96.7 Q 542.6 96.3, 542.6 96.2 L 542.6 99.7 L 542.0 99.7 L 542.0 95.5 L 542.7 95.5 " fill="#0000FF"/>
<path class="atom-9" d="M 523.1 78.2 L 523.6 78.2 L 523.6 80.0 L 525.8 80.0 L 525.8 78.2 L 526.4 78.2 L 526.4 82.4 L 525.8 82.4 L 525.8 80.5 L 523.6 80.5 L 523.6 82.4 L 523.1 82.4 L 523.1 78.2 " fill="#0000FF"/>
<path class="atom-9" d="M 527.6 78.2 L 528.9 80.5 Q 529.1 80.7, 529.3 81.1 Q 529.5 81.5, 529.5 81.5 L 529.5 78.2 L 530.1 78.2 L 530.1 82.4 L 529.5 82.4 L 528.0 80.0 Q 527.9 79.7, 527.7 79.4 Q 527.5 79.0, 527.4 78.9 L 527.4 82.4 L 526.9 82.4 L 526.9 78.2 L 527.6 78.2 " fill="#0000FF"/>
<path class="atom-14" d="M 567.1 43.2 L 569.7 43.2 L 569.7 43.7 L 567.7 43.7 L 567.7 45.0 L 569.4 45.0 L 569.4 45.5 L 567.7 45.5 L 567.7 47.5 L 567.1 47.5 L 567.1 43.2 " fill="#33CCCC"/>
<path class="atom-16" d="M 541.6 37.0 Q 541.6 35.9, 542.1 35.4 Q 542.6 34.8, 543.6 34.8 Q 544.5 34.8, 544.9 35.4 L 544.5 35.8 Q 544.2 35.3, 543.6 35.3 Q 542.9 35.3, 542.6 35.7 Q 542.3 36.2, 542.3 37.0 Q 542.3 37.8, 542.6 38.2 Q 543.0 38.7, 543.6 38.7 Q 544.1 38.7, 544.7 38.4 L 544.8 38.8 Q 544.6 39.0, 544.3 39.1 Q 543.9 39.2, 543.6 39.2 Q 542.6 39.2, 542.1 38.6 Q 541.6 38.0, 541.6 37.0 " fill="#00CC00"/>
<path class="atom-16" d="M 545.4 34.6 L 546.0 34.6 L 546.0 39.1 L 545.4 39.1 L 545.4 34.6 " fill="#00CC00"/>
<path class="atom-21" d="M 484.1 102.3 Q 484.1 101.3, 484.6 100.7 Q 485.1 100.1, 486.0 100.1 Q 486.9 100.1, 487.5 100.7 Q 488.0 101.3, 488.0 102.3 Q 488.0 103.3, 487.4 103.9 Q 486.9 104.5, 486.0 104.5 Q 485.1 104.5, 484.6 103.9 Q 484.1 103.3, 484.1 102.3 M 486.0 104.0 Q 486.7 104.0, 487.0 103.6 Q 487.4 103.1, 487.4 102.3 Q 487.4 101.4, 487.0 101.0 Q 486.7 100.6, 486.0 100.6 Q 485.4 100.6, 485.0 101.0 Q 484.7 101.4, 484.7 102.3 Q 484.7 103.1, 485.0 103.6 Q 485.4 104.0, 486.0 104.0 " fill="#FF0000"/>
<path class="atom-25" d="M 454.8 65.6 L 456.2 67.8 Q 456.3 68.1, 456.5 68.5 Q 456.8 68.9, 456.8 68.9 L 456.8 65.6 L 457.3 65.6 L 457.3 69.8 L 456.8 69.8 L 455.3 67.4 Q 455.1 67.1, 454.9 66.8 Q 454.7 66.4, 454.7 66.3 L 454.7 69.8 L 454.1 69.8 L 454.1 65.6 L 454.8 65.6 " fill="#0000FF"/>
<path d="M 467.3 188.1 Q 467.3 185.3, 468.6 183.8 Q 469.9 182.3, 472.4 182.3 Q 474.8 182.3, 476.0 184.0 L 475.0 184.8 Q 474.1 183.6, 472.4 183.6 Q 470.7 183.6, 469.8 184.8 Q 468.9 185.9, 468.9 188.1 Q 468.9 190.3, 469.9 191.5 Q 470.8 192.6, 472.6 192.6 Q 473.9 192.6, 475.3 191.9 L 475.8 193.1 Q 475.2 193.5, 474.3 193.7 Q 473.4 193.9, 472.4 193.9 Q 469.9 193.9, 468.6 192.4 Q 467.3 190.9, 467.3 188.1 " fill="#000000"/>
<path d="M 477.4 181.6 L 478.9 181.6 L 478.9 193.8 L 477.4 193.8 L 477.4 181.6 " fill="#000000"/>
<path d="M 487.1 185.5 L 487.1 193.8 L 485.9 193.8 L 485.7 192.6 Q 484.6 193.9, 482.9 193.9 Q 481.5 193.9, 480.8 193.2 Q 480.1 192.4, 480.1 191.0 L 480.1 185.5 L 481.6 185.5 L 481.6 190.9 Q 481.6 191.8, 482.0 192.3 Q 482.4 192.7, 483.2 192.7 Q 484.0 192.7, 484.6 192.4 Q 485.2 192.0, 485.6 191.4 L 485.6 185.5 L 487.1 185.5 " fill="#000000"/>
<path d="M 488.4 192.1 Q 489.1 192.4, 489.6 192.5 Q 490.1 192.7, 490.7 192.7 Q 491.4 192.7, 491.8 192.4 Q 492.2 192.1, 492.2 191.5 Q 492.2 191.1, 492.0 190.9 Q 491.8 190.6, 491.5 190.5 Q 491.3 190.4, 490.5 190.2 Q 490.4 190.1, 489.7 189.9 Q 489.0 189.6, 488.6 189.1 Q 488.2 188.5, 488.2 187.7 Q 488.2 186.7, 488.9 186.1 Q 489.7 185.4, 491.2 185.4 Q 491.8 185.4, 492.4 185.5 Q 492.9 185.7, 493.5 185.9 L 493.1 187.1 Q 492.6 186.9, 492.1 186.8 Q 491.7 186.6, 491.2 186.6 Q 490.4 186.6, 490.1 187.0 Q 489.7 187.2, 489.7 187.7 Q 489.7 188.2, 490.0 188.4 Q 490.3 188.6, 491.0 188.8 Q 491.1 188.9, 491.3 189.0 L 491.7 189.1 Q 492.3 189.3, 492.7 189.5 Q 493.2 189.8, 493.4 190.2 Q 493.7 190.7, 493.7 191.4 Q 493.7 192.6, 492.9 193.3 Q 492.0 193.9, 490.7 193.9 Q 489.9 193.9, 489.2 193.8 Q 488.6 193.6, 487.9 193.3 L 488.4 192.1 " fill="#000000"/>
<path d="M 494.2 186.7 L 494.2 185.5 L 495.8 185.5 L 496.0 183.1 L 497.1 183.1 L 497.1 185.5 L 499.6 185.5 L 499.6 186.7 L 497.1 186.7 L 497.1 191.2 Q 497.1 192.7, 498.3 192.7 Q 498.8 192.7, 499.5 192.4 L 499.8 193.5 Q 498.9 193.9, 498.1 193.9 Q 497.0 193.9, 496.3 193.2 Q 495.6 192.6, 495.6 191.3 L 495.6 186.7 L 494.2 186.7 " fill="#000000"/>
<path d="M 500.5 189.6 Q 500.5 187.6, 501.5 186.5 Q 502.5 185.4, 504.4 185.4 Q 506.2 185.4, 507.0 186.5 Q 507.8 187.6, 507.8 189.6 L 507.8 189.8 L 502.0 189.8 Q 502.1 191.2, 502.7 192.0 Q 503.3 192.7, 504.5 192.7 Q 505.1 192.7, 505.7 192.6 Q 506.3 192.4, 507.0 192.1 L 507.5 193.1 Q 506.7 193.5, 505.9 193.7 Q 505.2 193.9, 504.4 193.9 Q 502.6 193.9, 501.5 192.8 Q 500.5 191.7, 500.5 189.6 M 504.4 186.6 Q 503.4 186.6, 502.8 187.1 Q 502.3 187.7, 502.1 188.7 L 506.2 188.7 Q 506.1 187.6, 505.6 187.1 Q 505.2 186.6, 504.4 186.6 " fill="#000000"/>
<path d="M 510.4 185.5 L 510.5 186.7 Q 511.4 185.4, 512.8 185.4 Q 513.3 185.4, 513.9 185.6 L 513.6 186.9 Q 512.9 186.7, 512.6 186.7 Q 511.9 186.7, 511.4 187.0 Q 511.0 187.3, 510.7 187.9 L 510.7 193.8 L 509.2 193.8 L 509.2 185.5 L 510.4 185.5 " fill="#000000"/>
<path d="" fill="#000000"/>
<path d="M 524.0 187.8 Q 525.1 188.1, 525.6 188.8 Q 526.2 189.5, 526.2 190.7 Q 526.2 191.6, 525.7 192.4 Q 525.2 193.1, 524.3 193.5 Q 523.4 193.9, 522.3 193.9 Q 521.1 193.9, 520.2 193.5 Q 519.3 193.1, 518.5 192.2 L 519.5 191.3 Q 520.2 192.1, 520.8 192.4 Q 521.3 192.6, 522.3 192.6 Q 523.3 192.6, 523.9 192.1 Q 524.6 191.5, 524.6 190.6 Q 524.6 189.5, 523.9 189.0 Q 523.3 188.5, 521.9 188.5 L 521.1 188.5 L 521.1 187.3 L 521.8 187.3 Q 523.0 187.3, 523.7 186.8 Q 524.3 186.2, 524.3 185.2 Q 524.3 184.5, 523.8 184.0 Q 523.2 183.6, 522.3 183.6 Q 521.4 183.6, 520.8 183.9 Q 520.2 184.3, 519.7 185.1 L 518.6 184.5 Q 519.0 183.6, 520.0 183.0 Q 521.0 182.3, 522.3 182.3 Q 524.0 182.3, 524.9 183.1 Q 525.9 183.9, 525.9 185.2 Q 525.9 186.1, 525.4 186.8 Q 524.9 187.4, 524.0 187.8 " fill="#000000"/>
</svg>